<mxfile host="Electron" modified="2023-07-29T02:24:46.293Z" agent="Mozilla/5.0 (Windows NT 10.0; Win64; x64) AppleWebKit/537.36 (KHTML, like Gecko) draw.io/21.5.0 Chrome/112.0.5615.204 Electron/24.5.1 Safari/537.36" etag="XPiA6B98qwM1kg_qtXY3" version="21.5.0" type="device">
  <diagram name="Page-1" id="LC4A4CDqA60hoJebNvqy">
    <mxGraphModel dx="2440" dy="1418" grid="1" gridSize="10" guides="1" tooltips="1" connect="1" arrows="1" fold="1" page="1" pageScale="1" pageWidth="1169" pageHeight="827" math="0" shadow="0">
      <root>
        <mxCell id="0" />
        <mxCell id="1" parent="0" />
        <mxCell id="0xmivkQUzniH5dG8GMv2-1" value="" style="endArrow=none;html=1;rounded=0;" parent="1" edge="1">
          <mxGeometry width="50" height="50" relative="1" as="geometry">
            <mxPoint x="300" y="160" as="sourcePoint" />
            <mxPoint x="780" y="160" as="targetPoint" />
          </mxGeometry>
        </mxCell>
        <mxCell id="0xmivkQUzniH5dG8GMv2-2" value="" style="endArrow=none;html=1;rounded=0;" parent="1" edge="1">
          <mxGeometry width="50" height="50" relative="1" as="geometry">
            <mxPoint x="300" y="320" as="sourcePoint" />
            <mxPoint x="780" y="320" as="targetPoint" />
          </mxGeometry>
        </mxCell>
        <mxCell id="0xmivkQUzniH5dG8GMv2-3" value="" style="endArrow=none;html=1;rounded=0;" parent="1" edge="1">
          <mxGeometry width="50" height="50" relative="1" as="geometry">
            <mxPoint x="300" y="480" as="sourcePoint" />
            <mxPoint x="780" y="480" as="targetPoint" />
          </mxGeometry>
        </mxCell>
        <mxCell id="0xmivkQUzniH5dG8GMv2-4" value="" style="endArrow=none;html=1;rounded=0;" parent="1" edge="1">
          <mxGeometry width="50" height="50" relative="1" as="geometry">
            <mxPoint x="300" y="640" as="sourcePoint" />
            <mxPoint x="780" y="640" as="targetPoint" />
          </mxGeometry>
        </mxCell>
        <mxCell id="0xmivkQUzniH5dG8GMv2-5" value="" style="endArrow=none;html=1;rounded=0;" parent="1" edge="1">
          <mxGeometry width="50" height="50" relative="1" as="geometry">
            <mxPoint x="300" y="640" as="sourcePoint" />
            <mxPoint x="300" y="160" as="targetPoint" />
          </mxGeometry>
        </mxCell>
        <mxCell id="0xmivkQUzniH5dG8GMv2-6" value="" style="endArrow=none;html=1;rounded=0;" parent="1" edge="1">
          <mxGeometry width="50" height="50" relative="1" as="geometry">
            <mxPoint x="460" y="640" as="sourcePoint" />
            <mxPoint x="460" y="160" as="targetPoint" />
          </mxGeometry>
        </mxCell>
        <mxCell id="0xmivkQUzniH5dG8GMv2-7" value="" style="endArrow=none;html=1;rounded=0;" parent="1" edge="1">
          <mxGeometry width="50" height="50" relative="1" as="geometry">
            <mxPoint x="620" y="640" as="sourcePoint" />
            <mxPoint x="619" y="160" as="targetPoint" />
          </mxGeometry>
        </mxCell>
        <mxCell id="0xmivkQUzniH5dG8GMv2-8" value="" style="endArrow=none;html=1;rounded=0;" parent="1" edge="1">
          <mxGeometry width="50" height="50" relative="1" as="geometry">
            <mxPoint x="779" y="640" as="sourcePoint" />
            <mxPoint x="779" y="160" as="targetPoint" />
          </mxGeometry>
        </mxCell>
        <mxCell id="0xmivkQUzniH5dG8GMv2-25" value="" style="rounded=0;whiteSpace=wrap;html=1;" parent="1" vertex="1">
          <mxGeometry x="295" y="315" width="10" height="10" as="geometry" />
        </mxCell>
        <mxCell id="0xmivkQUzniH5dG8GMv2-26" value="" style="rounded=0;whiteSpace=wrap;html=1;" parent="1" vertex="1">
          <mxGeometry x="295" y="155" width="10" height="10" as="geometry" />
        </mxCell>
        <mxCell id="0xmivkQUzniH5dG8GMv2-27" value="" style="rounded=0;whiteSpace=wrap;html=1;" parent="1" vertex="1">
          <mxGeometry x="295" y="635" width="10" height="10" as="geometry" />
        </mxCell>
        <mxCell id="0xmivkQUzniH5dG8GMv2-28" value="" style="rounded=0;whiteSpace=wrap;html=1;" parent="1" vertex="1">
          <mxGeometry x="295" y="475" width="10" height="10" as="geometry" />
        </mxCell>
        <mxCell id="0xmivkQUzniH5dG8GMv2-29" value="" style="rounded=0;whiteSpace=wrap;html=1;" parent="1" vertex="1">
          <mxGeometry x="455" y="315" width="10" height="10" as="geometry" />
        </mxCell>
        <mxCell id="0xmivkQUzniH5dG8GMv2-30" value="" style="rounded=0;whiteSpace=wrap;html=1;" parent="1" vertex="1">
          <mxGeometry x="455" y="155" width="10" height="10" as="geometry" />
        </mxCell>
        <mxCell id="0xmivkQUzniH5dG8GMv2-31" value="" style="rounded=0;whiteSpace=wrap;html=1;" parent="1" vertex="1">
          <mxGeometry x="455" y="635" width="10" height="10" as="geometry" />
        </mxCell>
        <mxCell id="0xmivkQUzniH5dG8GMv2-32" value="" style="rounded=0;whiteSpace=wrap;html=1;" parent="1" vertex="1">
          <mxGeometry x="455" y="475" width="10" height="10" as="geometry" />
        </mxCell>
        <mxCell id="0xmivkQUzniH5dG8GMv2-33" value="" style="rounded=0;whiteSpace=wrap;html=1;" parent="1" vertex="1">
          <mxGeometry x="614" y="315" width="10" height="10" as="geometry" />
        </mxCell>
        <mxCell id="0xmivkQUzniH5dG8GMv2-34" value="" style="rounded=0;whiteSpace=wrap;html=1;" parent="1" vertex="1">
          <mxGeometry x="614" y="155" width="10" height="10" as="geometry" />
        </mxCell>
        <mxCell id="0xmivkQUzniH5dG8GMv2-35" value="" style="rounded=0;whiteSpace=wrap;html=1;" parent="1" vertex="1">
          <mxGeometry x="615" y="635" width="10" height="10" as="geometry" />
        </mxCell>
        <mxCell id="0xmivkQUzniH5dG8GMv2-36" value="" style="rounded=0;whiteSpace=wrap;html=1;" parent="1" vertex="1">
          <mxGeometry x="615" y="475" width="10" height="10" as="geometry" />
        </mxCell>
        <mxCell id="0xmivkQUzniH5dG8GMv2-37" value="" style="rounded=0;whiteSpace=wrap;html=1;" parent="1" vertex="1">
          <mxGeometry x="774" y="315" width="10" height="10" as="geometry" />
        </mxCell>
        <mxCell id="0xmivkQUzniH5dG8GMv2-38" value="" style="rounded=0;whiteSpace=wrap;html=1;" parent="1" vertex="1">
          <mxGeometry x="774" y="155" width="10" height="10" as="geometry" />
        </mxCell>
        <mxCell id="0xmivkQUzniH5dG8GMv2-39" value="" style="rounded=0;whiteSpace=wrap;html=1;" parent="1" vertex="1">
          <mxGeometry x="774" y="635" width="10" height="10" as="geometry" />
        </mxCell>
        <mxCell id="0xmivkQUzniH5dG8GMv2-40" value="" style="rounded=0;whiteSpace=wrap;html=1;" parent="1" vertex="1">
          <mxGeometry x="774" y="475" width="10" height="10" as="geometry" />
        </mxCell>
        <mxCell id="0xmivkQUzniH5dG8GMv2-43" value="" style="endArrow=none;html=1;rounded=0;entryX=0;entryY=1;entryDx=0;entryDy=0;exitX=1;exitY=0;exitDx=0;exitDy=0;" parent="1" source="0xmivkQUzniH5dG8GMv2-30" edge="1">
          <mxGeometry width="50" height="50" relative="1" as="geometry">
            <mxPoint x="476" y="155" as="sourcePoint" />
            <mxPoint x="490" y="130" as="targetPoint" />
          </mxGeometry>
        </mxCell>
        <mxCell id="0xmivkQUzniH5dG8GMv2-47" value="" style="endArrow=none;html=1;rounded=0;entryX=0;entryY=1;entryDx=0;entryDy=0;exitX=1;exitY=0;exitDx=0;exitDy=0;" parent="1" edge="1">
          <mxGeometry width="50" height="50" relative="1" as="geometry">
            <mxPoint x="624" y="155" as="sourcePoint" />
            <mxPoint x="650" y="130" as="targetPoint" />
          </mxGeometry>
        </mxCell>
        <mxCell id="0xmivkQUzniH5dG8GMv2-48" value="" style="endArrow=none;html=1;rounded=0;" parent="1" edge="1">
          <mxGeometry width="50" height="50" relative="1" as="geometry">
            <mxPoint x="750" y="670" as="sourcePoint" />
            <mxPoint x="774" y="645" as="targetPoint" />
          </mxGeometry>
        </mxCell>
        <mxCell id="0xmivkQUzniH5dG8GMv2-49" value="&lt;font style=&quot;font-size: 14px;&quot;&gt;HN-I&lt;/font&gt;" style="rounded=0;whiteSpace=wrap;html=1;" parent="1" vertex="1">
          <mxGeometry x="665" y="670" width="85" height="50" as="geometry" />
        </mxCell>
        <mxCell id="0xmivkQUzniH5dG8GMv2-50" value="" style="endArrow=none;html=1;rounded=0;" parent="1" edge="1">
          <mxGeometry width="50" height="50" relative="1" as="geometry">
            <mxPoint x="750" y="700" as="sourcePoint" />
            <mxPoint x="810" y="700" as="targetPoint" />
          </mxGeometry>
        </mxCell>
        <mxCell id="0xmivkQUzniH5dG8GMv2-51" value="AXI" style="text;strokeColor=none;align=center;fillColor=none;html=1;verticalAlign=middle;whiteSpace=wrap;rounded=0;" parent="1" vertex="1">
          <mxGeometry x="764" y="683" width="30" height="20" as="geometry" />
        </mxCell>
        <mxCell id="0xmivkQUzniH5dG8GMv2-55" value="" style="endArrow=none;html=1;rounded=0;entryX=0;entryY=0.5;entryDx=0;entryDy=0;" parent="1" edge="1" target="1AQ9PnP9baGsenoxVdya-1">
          <mxGeometry width="50" height="50" relative="1" as="geometry">
            <mxPoint x="810" y="700" as="sourcePoint" />
            <mxPoint x="860" y="650" as="targetPoint" />
            <Array as="points">
              <mxPoint x="810" y="640" />
            </Array>
          </mxGeometry>
        </mxCell>
        <mxCell id="0xmivkQUzniH5dG8GMv2-58" value="&lt;font style=&quot;font-size: 14px;&quot;&gt;SPI&lt;br style=&quot;border-color: var(--border-color);&quot;&gt;FLASH&lt;/font&gt;" style="rounded=0;whiteSpace=wrap;html=1;" parent="1" vertex="1">
          <mxGeometry x="860" y="680" width="70" height="40" as="geometry" />
        </mxCell>
        <mxCell id="0xmivkQUzniH5dG8GMv2-59" value="" style="endArrow=none;html=1;rounded=0;" parent="1" edge="1">
          <mxGeometry width="50" height="50" relative="1" as="geometry">
            <mxPoint x="810" y="700" as="sourcePoint" />
            <mxPoint x="860" y="700" as="targetPoint" />
            <Array as="points" />
          </mxGeometry>
        </mxCell>
        <mxCell id="0xmivkQUzniH5dG8GMv2-60" value="" style="endArrow=none;html=1;rounded=0;" parent="1" edge="1">
          <mxGeometry width="50" height="50" relative="1" as="geometry">
            <mxPoint x="270" y="350" as="sourcePoint" />
            <mxPoint x="295" y="325" as="targetPoint" />
          </mxGeometry>
        </mxCell>
        <mxCell id="0xmivkQUzniH5dG8GMv2-61" value="&lt;font style=&quot;font-size: 14px;&quot;&gt;SN-F&lt;/font&gt;" style="rounded=0;whiteSpace=wrap;html=1;" parent="1" vertex="1">
          <mxGeometry x="185" y="350" width="85" height="50" as="geometry" />
        </mxCell>
        <mxCell id="0xmivkQUzniH5dG8GMv2-62" value="&lt;font style=&quot;font-size: 14px;&quot;&gt;DDR&lt;/font&gt;" style="rounded=0;whiteSpace=wrap;html=1;" parent="1" vertex="1">
          <mxGeometry x="185" y="450" width="85" height="50" as="geometry" />
        </mxCell>
        <mxCell id="0xmivkQUzniH5dG8GMv2-63" value="" style="endArrow=none;html=1;rounded=0;entryX=0.5;entryY=1;entryDx=0;entryDy=0;exitX=0.5;exitY=0;exitDx=0;exitDy=0;" parent="1" source="0xmivkQUzniH5dG8GMv2-62" target="0xmivkQUzniH5dG8GMv2-61" edge="1">
          <mxGeometry width="50" height="50" relative="1" as="geometry">
            <mxPoint x="190" y="460" as="sourcePoint" />
            <mxPoint x="240" y="410" as="targetPoint" />
          </mxGeometry>
        </mxCell>
        <mxCell id="0xmivkQUzniH5dG8GMv2-64" value="&lt;font style=&quot;font-size: 14px;&quot;&gt;XP&lt;/font&gt;" style="text;strokeColor=none;align=center;fillColor=none;html=1;verticalAlign=middle;whiteSpace=wrap;rounded=0;" parent="1" vertex="1">
          <mxGeometry x="302" y="458" width="30" height="20" as="geometry" />
        </mxCell>
        <mxCell id="0xmivkQUzniH5dG8GMv2-66" value="" style="endArrow=none;html=1;rounded=0;entryX=0;entryY=1;entryDx=0;entryDy=0;exitX=1;exitY=0;exitDx=0;exitDy=0;" parent="1" edge="1">
          <mxGeometry width="50" height="50" relative="1" as="geometry">
            <mxPoint x="430" y="190" as="sourcePoint" />
            <mxPoint x="455" y="165" as="targetPoint" />
          </mxGeometry>
        </mxCell>
        <mxCell id="0xmivkQUzniH5dG8GMv2-69" value="&lt;font style=&quot;font-size: 14px;&quot;&gt;HN-F&lt;/font&gt;" style="rounded=0;whiteSpace=wrap;html=1;" parent="1" vertex="1">
          <mxGeometry x="345" y="190" width="85" height="50" as="geometry" />
        </mxCell>
        <mxCell id="0xmivkQUzniH5dG8GMv2-87" value="&lt;font style=&quot;font-size: 14px;&quot;&gt;UART&lt;/font&gt;" style="text;strokeColor=none;align=center;fillColor=none;html=1;verticalAlign=middle;whiteSpace=wrap;rounded=0;" parent="1" vertex="1">
          <mxGeometry x="517.5" y="34" width="30" height="20" as="geometry" />
        </mxCell>
        <mxCell id="0xmivkQUzniH5dG8GMv2-89" value="" style="endArrow=classic;html=1;rounded=0;entryX=0.5;entryY=0;entryDx=0;entryDy=0;endFill=1;exitX=0.5;exitY=1;exitDx=0;exitDy=0;" parent="1" edge="1">
          <mxGeometry width="50" height="50" relative="1" as="geometry">
            <mxPoint x="533" y="54" as="sourcePoint" />
            <mxPoint x="533" y="79" as="targetPoint" />
          </mxGeometry>
        </mxCell>
        <mxCell id="0xmivkQUzniH5dG8GMv2-93" value="" style="endArrow=none;html=1;rounded=0;exitX=-0.005;exitY=0.797;exitDx=0;exitDy=0;exitPerimeter=0;entryX=-0.002;entryY=0.208;entryDx=0;entryDy=0;entryPerimeter=0;startArrow=classic;startFill=1;" parent="1" target="0xmivkQUzniH5dG8GMv2-94" edge="1">
          <mxGeometry width="50" height="50" relative="1" as="geometry">
            <mxPoint x="489.57500000000005" y="119.85000000000002" as="sourcePoint" />
            <mxPoint x="665" y="734.5" as="targetPoint" />
            <Array as="points">
              <mxPoint x="140" y="120" />
              <mxPoint x="140" y="730" />
            </Array>
          </mxGeometry>
        </mxCell>
        <mxCell id="0xmivkQUzniH5dG8GMv2-97" value="&lt;font style=&quot;font-size: 14px;&quot;&gt;time_irq_0&lt;/font&gt;" style="edgeLabel;html=1;align=center;verticalAlign=middle;resizable=0;points=[];" parent="0xmivkQUzniH5dG8GMv2-93" vertex="1" connectable="0">
          <mxGeometry x="-0.0696" y="1" relative="1" as="geometry">
            <mxPoint y="11" as="offset" />
          </mxGeometry>
        </mxCell>
        <mxCell id="0xmivkQUzniH5dG8GMv2-94" value="&lt;font style=&quot;font-size: 14px;&quot;&gt;CLINT&lt;/font&gt;" style="rounded=0;whiteSpace=wrap;html=1;" parent="1" vertex="1">
          <mxGeometry x="665" y="720" width="85" height="50" as="geometry" />
        </mxCell>
        <mxCell id="0xmivkQUzniH5dG8GMv2-95" value="" style="endArrow=classic;html=1;rounded=0;entryX=1.002;entryY=0.798;entryDx=0;entryDy=0;exitX=1.001;exitY=0.202;exitDx=0;exitDy=0;entryPerimeter=0;exitPerimeter=0;endFill=1;" parent="1" source="0xmivkQUzniH5dG8GMv2-94" edge="1">
          <mxGeometry width="50" height="50" relative="1" as="geometry">
            <mxPoint x="750" y="735" as="sourcePoint" />
            <mxPoint x="735.1700000000001" y="119.89999999999998" as="targetPoint" />
            <Array as="points">
              <mxPoint x="1000" y="730" />
              <mxPoint x="1000" y="120" />
            </Array>
          </mxGeometry>
        </mxCell>
        <mxCell id="0xmivkQUzniH5dG8GMv2-96" value="&lt;font style=&quot;font-size: 14px;&quot;&gt;time_irq&lt;/font&gt;" style="edgeLabel;html=1;align=center;verticalAlign=middle;resizable=0;points=[];" parent="0xmivkQUzniH5dG8GMv2-95" vertex="1" connectable="0">
          <mxGeometry x="-0.08" relative="1" as="geometry">
            <mxPoint y="8" as="offset" />
          </mxGeometry>
        </mxCell>
        <mxCell id="0xmivkQUzniH5dG8GMv2-98" value="" style="endArrow=none;html=1;rounded=0;exitX=-0.005;exitY=0.199;exitDx=0;exitDy=0;exitPerimeter=0;entryX=-0.002;entryY=0.796;entryDx=0;entryDy=0;entryPerimeter=0;startArrow=classic;startFill=1;" parent="1" target="0xmivkQUzniH5dG8GMv2-94" edge="1">
          <mxGeometry width="50" height="50" relative="1" as="geometry">
            <mxPoint x="489.57500000000005" y="89.94999999999999" as="sourcePoint" />
            <mxPoint x="665" y="717.5" as="targetPoint" />
            <Array as="points">
              <mxPoint x="60" y="90" />
              <mxPoint x="60" y="760" />
            </Array>
          </mxGeometry>
        </mxCell>
        <mxCell id="0xmivkQUzniH5dG8GMv2-99" value="&lt;font style=&quot;font-size: 14px;&quot;&gt;ipi_0&lt;/font&gt;" style="edgeLabel;html=1;align=center;verticalAlign=middle;resizable=0;points=[];" parent="0xmivkQUzniH5dG8GMv2-98" vertex="1" connectable="0">
          <mxGeometry x="-0.0696" y="1" relative="1" as="geometry">
            <mxPoint y="19" as="offset" />
          </mxGeometry>
        </mxCell>
        <mxCell id="0xmivkQUzniH5dG8GMv2-100" value="" style="endArrow=classic;html=1;rounded=0;entryX=1.003;entryY=0.202;entryDx=0;entryDy=0;entryPerimeter=0;endFill=1;" parent="1" edge="1">
          <mxGeometry width="50" height="50" relative="1" as="geometry">
            <mxPoint x="750" y="760" as="sourcePoint" />
            <mxPoint x="735.255" y="90.10000000000002" as="targetPoint" />
            <Array as="points">
              <mxPoint x="1080" y="760" />
              <mxPoint x="1080" y="90" />
            </Array>
          </mxGeometry>
        </mxCell>
        <mxCell id="0xmivkQUzniH5dG8GMv2-101" value="&lt;font style=&quot;font-size: 14px;&quot;&gt;ipi_1&lt;/font&gt;" style="edgeLabel;html=1;align=center;verticalAlign=middle;resizable=0;points=[];" parent="0xmivkQUzniH5dG8GMv2-100" vertex="1" connectable="0">
          <mxGeometry x="-0.08" relative="1" as="geometry">
            <mxPoint as="offset" />
          </mxGeometry>
        </mxCell>
        <mxCell id="1AQ9PnP9baGsenoxVdya-1" value="&lt;span style=&quot;font-size: 14px;&quot;&gt;...&lt;/span&gt;" style="rounded=0;whiteSpace=wrap;html=1;" vertex="1" parent="1">
          <mxGeometry x="860" y="620" width="70" height="40" as="geometry" />
        </mxCell>
        <mxCell id="1AQ9PnP9baGsenoxVdya-2" value="&lt;font style=&quot;font-size: 14px;&quot;&gt;Biriscv&lt;br&gt;RN-F&lt;/font&gt;" style="rounded=0;whiteSpace=wrap;html=1;" vertex="1" parent="1">
          <mxGeometry x="650" y="80" width="85" height="50" as="geometry" />
        </mxCell>
        <mxCell id="1AQ9PnP9baGsenoxVdya-3" value="&lt;font style=&quot;font-size: 14px;&quot;&gt;Biriscv&lt;br&gt;RN-F&lt;/font&gt;" style="rounded=0;whiteSpace=wrap;html=1;" vertex="1" parent="1">
          <mxGeometry x="490" y="80" width="85" height="50" as="geometry" />
        </mxCell>
      </root>
    </mxGraphModel>
  </diagram>
</mxfile>
